<?xml version="1.0" standalone="no"?>
<!DOCTYPE svg PUBLIC "-//W3C//DTD SVG 20010904//EN"
 "http://www.w3.org/TR/2001/REC-SVG-20010904/DTD/svg10.dtd">
<svg version="1.0" xmlns="http://www.w3.org/2000/svg"
 width="200.000000pt" height="200.000000pt" viewBox="0 0 200.000000 200.000000"
 preserveAspectRatio="xMidYMid meet">
<metadata>
Created by potrace 1.16, written by Peter Selinger 2001-2019
</metadata>
<g transform="translate(0.000000,200.000000) scale(0.100000,-0.100000)"
fill="#000000" stroke="none">
<path d="M1009 1607 c-65 -22 -88 -47 -105 -112 -20 -74 -14 -168 17 -266 17
-55 26 -69 42 -69 15 0 18 5 13 23 -13 47 -18 202 -7 229 25 64 131 89 286 66
l90 -13 3 -33 c2 -17 -15 -98 -37 -179 -21 -82 -42 -165 -46 -186 -5 -34 -11
-40 -61 -62 -30 -13 -57 -31 -60 -39 -3 -8 7 -42 22 -76 l27 -61 -42 -107
c-23 -59 -59 -141 -81 -182 -36 -69 -41 -75 -73 -78 -32 -3 -35 -1 -41 32 -4
19 -26 58 -50 87 -40 48 -154 137 -202 158 -11 5 -35 26 -53 47 -29 32 -33 42
-28 77 7 54 35 88 83 103 l39 12 -40 2 c-34 3 -35 4 -11 7 36 6 79 -5 71 -17
-3 -6 1 -10 9 -10 18 0 81 -75 95 -113 6 -16 11 -39 11 -53 0 -28 34 -34 44
-8 10 26 7 172 -4 179 -5 3 -10 17 -10 31 0 31 -16 31 -24 -1 -8 -30 -28 -32
-65 -6 -38 27 -113 45 -166 38 l-45 -5 0 68 c0 53 4 73 21 94 l20 26 -21 0
c-12 0 -18 5 -15 10 3 6 15 10 26 10 10 0 19 7 19 15 0 13 -24 15 -155 15
-131 0 -155 -2 -155 -15 0 -9 9 -15 24 -15 50 0 51 -6 51 -389 0 -386 -2 -403
-54 -434 l-28 -17 -7 50 c-6 42 -11 52 -36 65 -40 21 -72 19 -104 -6 -31 -25
-33 -49 -6 -105 17 -35 28 -44 64 -54 38 -10 49 -10 80 5 20 10 40 15 43 11 3
-3 1 -6 -6 -6 -7 0 -9 -5 -6 -11 4 -6 19 -7 36 -4 28 6 29 5 29 -32 0 -45 30
-67 68 -50 16 7 32 6 59 -6 68 -29 172 -39 237 -22 80 21 132 50 153 85 l17
30 216 0 c228 0 285 -6 447 -46 l102 -26 36 29 c45 36 49 51 35 128 -9 48 -17
64 -31 68 -15 4 -23 -3 -34 -30 l-15 -36 -58 7 c-108 11 -287 25 -423 32
l-136 7 43 42 c28 28 47 59 54 87 7 23 15 48 19 53 9 11 30 74 61 180 11 39
24 76 28 83 6 9 50 15 143 19 l134 6 31 -27 c38 -31 84 -34 145 -9 l41 16 -5
46 c-4 33 -12 52 -33 69 -25 22 -34 24 -88 18 -34 -3 -122 -9 -197 -12 l-136
-7 7 44 c4 24 24 106 44 182 20 76 36 147 36 158 0 10 6 19 13 19 43 -1 212
-33 310 -59 148 -39 161 -39 204 4 31 31 33 38 27 72 -4 21 -11 46 -16 56 -8
17 -11 16 -40 -8 -29 -24 -36 -26 -92 -20 -64 7 -281 58 -328 77 -20 7 -28 18
-28 34 0 30 -19 31 -54 3 -27 -22 -28 -22 -129 -5 -146 23 -245 28 -288 13z
m-306 -1094 c97 -75 111 -141 41 -202 -30 -27 -43 -31 -89 -31 -49 0 -59 4
-95 36 -22 20 -40 42 -40 49 0 7 13 28 29 48 15 20 34 58 41 84 23 85 22 85
113 16z"/>
</g>
</svg>
